<?xml version="1.0" encoding="utf-8"?>
<!-- Generator: Adobe Illustrator 16.0.0, SVG Export Plug-In . SVG Version: 6.00 Build 0)  -->
<!DOCTYPE svg PUBLIC "-//W3C//DTD SVG 1.1//EN" "http://www.w3.org/Graphics/SVG/1.1/DTD/svg11.dtd">
<svg version="1.1" id="Layer_1" xmlns="http://www.w3.org/2000/svg" xmlns:xlink="http://www.w3.org/1999/xlink" x="0px" y="0px"
	 width="250px" height="143.631px" viewBox="0 51.423 250 143.631" enable-background="new 0 51.423 250 143.631"
	 xml:space="preserve">
<ellipse transform="matrix(-0.9973 0.0728 -0.0728 -0.9973 113.245 160.0788)" fill="#CDAC79" cx="53.705" cy="82.103" rx="52.244" ry="21.981"/>
<g>
	<path fill="#FF4040" d="M21.015,128.361c2.426,0.076,2.221,2.252,1.825,3.672c1.019-0.626,1.701-2.809,1.701-4.09
		c0-1.963-1.599-3.555-3.571-3.555c-1.972,0-3.571,1.592-3.571,3.555c0,0.869,0.314,2.729,0.835,3.348
		C18.692,130.129,19.629,128.318,21.015,128.361z"/>
	<path fill="#FF4040" d="M17.646,132.902c-3.561-4.702-6.315-16.127-7.148-19.871c-5.579-3.125-9.558-7.05-11.344-11.551
		l17.741,73.763c1.865,4.657,5.204,8.384,9.921,11.167c-1.556-6.869-3.431-14.465-4.646-20.16
		C19.953,155.855,15.3,139.684,17.646,132.902z"/>
	<path fill="#FF4040" d="M82.162,115.915c-7.353,2.168-15.725,3.655-24.681,4.506c-9.051,0.86-17.705,0.606-25.472-0.565
		c-1.785,4.275-5.943,13.224-10.085,14.848c-2.092,7.422,0.771,16.26,3.378,28.118c1.748,7.945,4.14,17.736,5.385,25.529
		c7.631,3.242,17.951,4.603,30.696,4.03c13.785-0.616,23.507-3.687,30.36-7.618c-0.105-8.184,1.311-19.578,1.939-28.603
		c1.065-15.308,2.619-19.591,0.015-27.173C89.835,128.157,85.053,120.916,82.162,115.915z"/>
	<path fill="#FF4040" d="M237.895,109.611c-1.314,4.722-4.617,14.864-8.399,19.608c2.104,7.531-4.325,25.555-7.402,36.737
		c-1.875,6.819-4.79,16.151-7.048,24.137c7.372-3.315,12.092-8.03,14.163-13.341c1.83-4.689,21.325-80.179,21.325-80.179
		C248.616,101.633,244.171,106.071,237.895,109.611z"/>
	<path fill="#FF4040" d="M223.789,128.404c-0.463-1.502-0.953-4.396,2.148-4.341c1.771,0.028,2.565,1.901,2.903,3.201
		c0.435-0.604,0.697-2.397,0.722-3.194c0.067-2.142-1.619-3.933-3.771-4c-2.148-0.067-3.947,1.613-4.018,3.754
		C221.729,125.33,222.551,127.723,223.789,128.404z"/>
	<path fill="#FF4040" d="M145.383,124.434c-3.146-5.062-4.956-15.955-5.761-22.064c-6.082-4.637-10.056-9.949-11.185-15.494
		l2.748,32.199l-21.375,1.134c0.82-15.557,1.393-28.714,1.393-28.714c-0.83,5.378-3.638,9.968-7.987,13.819
		c-0.663,5.34-2.356,16.414-5.456,21.318c2.638,9.869,0.137,22.716-0.48,32.464c-0.415,6.555-1.305,15.62-1.835,23.271
		c5.595-4.085,8.712-8.693,10.425-12.389c0.632-1.36,1.36-8.888,2.072-18.778l26.14,1.817l1.271,14.89
		c0.828,6.106,5.895,12.598,14.344,17.698c-0.875-8.381-1.865-18.383-2.58-25.599C146.062,149.338,142.807,135.325,145.383,124.434z
		"/>
	<path fill="#FF4040" d="M149.701,119.748c2.256,0.703,1.873,2.813,1.345,3.915c-0.078,0.2-0.153,0.396-0.228,0.592
		c1.552-0.512,2.673-3.029,2.673-4.745c0-2.143-1.745-3.88-3.896-3.88c-2.152,0-3.896,1.737-3.896,3.88
		c0,0.558,0.121,2.149,0.333,2.629c0.05-0.149,0.096-0.303,0.147-0.45C146.18,121.688,147.078,118.93,149.701,119.748z"/>
	<path fill="#FF4040" d="M224.607,131.268c-4.197-1.516-8.627-9.021-10.963-13.955c-8.072,1.236-17.002,1.578-26.334,0.84
		c-9.062-0.718-17.584-2.381-25.192-4.756c-3.185,5.429-8.199,12.835-12.271,13.692c-2.523,8.338-0.668,12.963,1.084,29.58
		c1.035,9.84,3.029,22.249,3.225,31.181c8.044,3.988,18.154,6.744,29.345,7.135c11.062,0.389,20.142-0.885,27.269-3.291
		c1.73-8.717,5.328-20.359,7.953-29.67C222.264,149.456,226.188,139.4,224.607,131.268z"/>
	<path fill="#FF4040" d="M92.677,126.343c-0.057-0.135-0.114-0.271-0.173-0.407c-0.521-0.991-0.94-2.912,1.103-3.628
		c2.376-0.834,3.29,1.662,3.29,1.662c0.084,0.214,0.161,0.433,0.239,0.65c0.243-0.48,0.383-2.085,0.383-2.659
		c0-1.964-1.599-3.556-3.57-3.556c-1.972,0-3.571,1.592-3.571,3.556C90.377,123.477,91.333,125.832,92.677,126.343z"/>
</g>
<ellipse transform="matrix(0.9978 0.067 -0.067 0.9978 5.526 -12.6426)" fill="#CDAC79" cx="191.249" cy="76.064" rx="57.953" ry="24.384"/>
</svg>
