<?xml version="1.0" encoding="utf-8"?>
<!-- Generator: Adobe Illustrator 16.0.0, SVG Export Plug-In . SVG Version: 6.00 Build 0)  -->
<!DOCTYPE svg PUBLIC "-//W3C//DTD SVG 1.1//EN" "http://www.w3.org/Graphics/SVG/1.1/DTD/svg11.dtd">
<svg version="1.1" id="Layer_1" xmlns="http://www.w3.org/2000/svg" xmlns:xlink="http://www.w3.org/1999/xlink" x="0px" y="0px"
	 width="250px" height="181.117px" viewBox="0 23.567 250 181.117" enable-background="new 0 23.567 250 181.117"
	 xml:space="preserve">
<g id="Layer_1_1_">
	<g>
		<path fill="none" d="M75.429,85.128c-11.867,0-21.487,9.62-21.487,21.488c0,11.867,9.62,21.485,21.487,21.485
			c11.867,0,21.486-9.619,21.486-21.485C96.916,94.748,87.297,85.128,75.429,85.128z M93.274,106.614
			c0,9.854-7.99,17.847-17.846,17.847c-9.856,0-17.845-7.99-17.845-17.847c0-9.855,7.989-17.846,17.845-17.846
			c2.325,0,4.543,0.449,6.58,1.258c-1.757,1.065-2.937,2.992-2.937,5.197c0,3.359,2.723,6.082,6.083,6.082
			c2.545,0,4.724-1.564,5.629-3.783C92.364,100.187,93.274,103.294,93.274,106.614z"/>
		<path fill="none" d="M168,85.128c-11.866,0-21.486,9.62-21.486,21.488c0,11.867,9.62,21.485,21.486,21.485
			c11.867,0,21.486-9.619,21.486-21.485C189.486,94.748,179.867,85.128,168,85.128z M185.846,106.614
			c0,9.854-7.988,17.847-17.846,17.847s-17.848-7.99-17.848-17.847c0-9.855,7.99-17.846,17.848-17.846
			c2.323,0,4.541,0.449,6.578,1.258c-1.76,1.065-2.938,2.992-2.938,5.197c0,3.359,2.724,6.082,6.082,6.082
			c2.545,0,4.725-1.564,5.631-3.783C184.936,100.187,185.846,103.294,185.846,106.614z"/>
		<path fill="#2A2D30" d="M249.217,190.381c-8.669-8.773-18.9-16.546-30.133-22.002c3.875-4.607,6.811-9.604,8.508-14.966
			c0.236-0.752,0.444-1.521,0.635-2.295c5.414,1.854,10.657,4.225,15.66,6.976c2.143,1.18,4.057-2.096,1.912-3.271
			c-5.412-2.979-11.054-5.45-16.876-7.393c3.918-27.768-18.944-66.821-18.944-66.821c1.418-8.221,16.062-48.33,1.062-55.867
			c-13.222-6.643-44.043,16.519-50.72,28.449c-12.67-4.098-23.239-4.806-35.768-4.346c-12.529-0.459-23.099,0.249-35.769,4.346
			c-6.676-11.931-37.499-35.09-50.718-28.449c-15.001,7.537-0.355,47.646,1.063,55.867c0,0-22.98,39.255-18.916,67.034
			c-5.539,1.926-10.903,4.367-16.016,7.18c-2.143,1.18-0.229,4.451,1.914,3.272c4.787-2.632,9.747-4.844,14.857-6.63
			c0.166,0.658,0.344,1.312,0.546,1.948c1.735,5.481,4.759,10.581,8.763,15.272C19.295,174.123,9.285,181.771,0.78,190.38
			c-1.719,1.74,0.962,4.423,2.681,2.681c8.476-8.578,18.483-16.184,29.48-21.459c20.637,21.162,61.448,33.207,91.407,33.08
			c0.067,0.002,0.135,0,0.203,0.002c0.066-0.002,0.136,0,0.203-0.002c30.098,0.127,71.146-12.027,91.689-33.371
			c11.236,5.283,21.457,13.015,30.088,21.75C248.255,194.805,250.938,192.122,249.217,190.381z"/>
	</g>
	<path fill="#FC79E0" d="M131.366,142.191c-2.273-2.024-5.688,1.816-2.273,4.472c3.412,2.653-3.036,5.31-6.068,5.688h-0.408
		c-3.034-0.381-9.479-3.033-6.066-5.688c3.413-2.654,0-6.496-2.275-4.472c-6.333,5.638-12.937-3.207-4.171-9.479
		c6.446-4.612,19.719-5.438,25.436,0C143.363,140.154,137.7,147.829,131.366,142.191z"/>
</g>
<g id="Layer_2">
	<circle fill="#41B823" cx="75.099" cy="106.565" r="21.626"/>
	<circle fill="#2A2D30" cx="75.099" cy="106.565" r="17.961"/>
	<circle fill="#FFFFFF" cx="84.887" cy="95.101" r="6.121"/>
	<circle fill="#41B823" cx="168.266" cy="106.565" r="21.626"/>
	<circle fill="#2A2D30" cx="168.266" cy="106.565" r="17.961"/>
	<circle fill="#FFFFFF" cx="178.055" cy="95.101" r="6.122"/>
</g>
</svg>
