<?xml version="1.0" encoding="utf-8"?>
<!-- Generator: Adobe Illustrator 16.0.0, SVG Export Plug-In . SVG Version: 6.00 Build 0)  -->
<!DOCTYPE svg PUBLIC "-//W3C//DTD SVG 1.1//EN" "http://www.w3.org/Graphics/SVG/1.1/DTD/svg11.dtd">
<svg version="1.1" id="Layer_2" xmlns="http://www.w3.org/2000/svg" xmlns:xlink="http://www.w3.org/1999/xlink" x="0px" y="0px"
	 width="270.526px" height="175.359px" viewBox="-2.332 0 270.526 175.359" enable-background="new -2.332 0 270.526 175.359"
	 xml:space="preserve">
<g>
	<path fill="#2A2D30" d="M63.438,50.673c6.633,2.405,18.04,0.963,23.327-2.988c13.369-9.992,36.494-11.542,38.258-2.846
		c1.867,9.187-23.549,4.227-20.693,20.364c1.208,6.82,10.351,5.172,10.351,5.172c0.863,7.04-7.966,3.173-8.186,18.958
		c0,0-12.128,1.326-9.934,9.024c1.567,5.492,19.325,4.163,19.167,12.28c-0.282,14.349-21.252,4.533-30.898,7.125
		c-8.696,2.336-19.527,21.749-43.679,25.756c0,0-31.988,8.765-41.763-45.499C-4.245,77.841-2.19,62.301,6.208,53.91
		C19.878,40.851,36.608,40.942,63.438,50.673z"/>
	<g>
		<path fill="#8D96A4" d="M254.226,49.434c-0.159,1.156-1.088,1.986-2.074,1.85l-1.729-0.238c-0.984-0.136-1.654-1.186-1.494-2.341
			l0,0c0.159-1.158,1.087-1.987,2.073-1.852l1.728,0.239C253.717,47.226,254.387,48.277,254.226,49.434L254.226,49.434z"/>
		<path fill="#8D96A4" d="M261.778,50.476c-0.161,1.156-1.088,1.985-2.074,1.851l-1.729-0.238c-0.986-0.136-1.654-1.185-1.496-2.343
			l0,0c0.16-1.158,1.091-1.986,2.075-1.85l1.727,0.237C261.268,48.267,261.936,49.317,261.778,50.476L261.778,50.476z"/>
		<path fill="#8D96A4" d="M239.124,47.35c-0.162,1.158-1.09,1.986-2.076,1.85l-1.727-0.237c-0.985-0.136-1.654-1.186-1.496-2.342
			l0,0c0.161-1.158,1.087-1.987,2.074-1.851l1.728,0.238C238.614,45.144,239.281,46.191,239.124,47.35L239.124,47.35z"/>
		<path fill="#8D96A4" d="M246.674,48.391c-0.159,1.157-1.087,1.987-2.074,1.851l-1.729-0.237c-0.983-0.137-1.653-1.187-1.494-2.343
			l0,0c0.161-1.158,1.089-1.986,2.075-1.851l1.728,0.237C246.164,46.186,246.833,47.233,246.674,48.391L246.674,48.391z"/>
		<path fill="#8D96A4" d="M224.018,45.268c-0.16,1.158-1.087,1.985-2.071,1.851l-1.728-0.237c-0.986-0.136-1.653-1.187-1.497-2.344
			l0,0c0.161-1.157,1.089-1.986,2.074-1.851l1.729,0.239C223.512,43.06,224.18,44.111,224.018,45.268L224.018,45.268z"/>
		<path fill="#8D96A4" d="M231.571,46.31c-0.16,1.158-1.088,1.985-2.074,1.85l-1.727-0.236c-0.985-0.138-1.654-1.187-1.497-2.344
			l0,0c0.161-1.156,1.088-1.986,2.074-1.851l1.729,0.238C231.061,44.101,231.731,45.151,231.571,46.31L231.571,46.31z"/>
	</g>
	<path fill="#FFFFFF" d="M111.696,113.144c1.576-11.431-22.294-0.391-23.251-23.928c-0.471-11.524,12.794-16.61,9.869-25.334
		c-1.626-4.852-10.594,0.623-21.247,2.209c-8.508,1.265-17.646-3.697-27.963,0.021c-8.743,3.151-10.852,9.229-10.459,16.069
		l6.353-1.142l3.576,19.849l-5.58,1.002c0.586,2.621,0.931,5.024,0.747,7.059c-1.06,11.647-8.043,25.449,2.381,25.736
		c10.424,0.285,25.221-17.729,35.63-20.038C88.9,113.063,110.95,118.552,111.696,113.144z"/>
	<circle fill="#231F20" cx="47.063" cy="125.731" r="3.886"/>
	<path fill="#231F20" d="M53.458,114.788c-1.032,1.885-3.393,2.573-5.275,1.543c-1.882-1.031-2.572-3.394-1.542-5.275
		c1.031-1.881,3.392-2.571,5.274-1.541C53.797,110.547,54.487,112.906,53.458,114.788z"/>
	<g>
		<path fill="#CDAC79" d="M226.546,77.17c2.771,0.383,15.631-6.294,22.083-7.281c8.058-1.232,7.309,6.307,14.317,2.609
			c9.325-4.926,5.01-14.609-3.498-15.461l-41.578-5.536c-4.271,0.069-4.754,5.063-7.379,5.708
			c-1.563,0.382-123.58,17.01-123.58,17.01c-8.131,1.165-5.37,19.517,2.224,19.002l124.862-24.544
			C218.121,68.259,223.773,76.786,226.546,77.17z"/>
	</g>
	<path fill="none" stroke="#2A2D30" stroke-miterlimit="10" d="M219.661,68.698"/>
</g>
</svg>
