<?xml version="1.0" encoding="utf-8"?>
<!-- Generator: Adobe Illustrator 16.0.0, SVG Export Plug-In . SVG Version: 6.00 Build 0)  -->
<!DOCTYPE svg PUBLIC "-//W3C//DTD SVG 1.1//EN" "http://www.w3.org/Graphics/SVG/1.1/DTD/svg11.dtd">
<svg version="1.1" id="Layer_1" xmlns="http://www.w3.org/2000/svg" xmlns:xlink="http://www.w3.org/1999/xlink" x="0px" y="0px"
	 width="270.526px" height="175.359px" viewBox="-2.332 0 270.526 175.359" enable-background="new -2.332 0 270.526 175.359"
	 xml:space="preserve">
<g>
	<path fill="#2A2D30" d="M54.376,76.612c7.051-0.273,17.072-5.909,20.48-11.562c8.615-14.295,29.448-24.448,34.362-17.06
		C114.41,55.795,89,60.783,97.729,74.653c3.69,5.861,11.536,0.888,11.536,0.888c3.454,6.195-6.181,5.942-0.434,20.646
		c0,0-10.733,5.801-5.799,12.104c3.523,4.496,19.469-3.43,22.382,4.148c5.148,13.397-17.975,12.211-25.931,18.248
		c-7.175,5.442-9.887,27.506-30.746,40.323c0,0-26.324,20.177-55.835-26.397C1.929,127.293-2.026,112.125,2.59,101.187
		C10.327,83.937,25.857,77.715,54.376,76.612z"/>
	<g>
		<path fill="#8D96A4" d="M230.618,3.537c0.288,1.131-0.259,2.25-1.224,2.495l-1.69,0.432c-0.963,0.245-1.979-0.475-2.267-1.605l0,0
			c-0.289-1.133,0.258-2.25,1.222-2.496l1.69-0.431C229.314,1.684,230.331,2.405,230.618,3.537L230.618,3.537z"/>
		<path fill="#8D96A4" d="M238.007,1.655c0.287,1.132-0.26,2.249-1.224,2.496l-1.69,0.431c-0.965,0.246-1.979-0.474-2.27-1.605l0,0
			c-0.288-1.133,0.262-2.251,1.225-2.496l1.688-0.432C236.701-0.198,237.716,0.522,238.007,1.655L238.007,1.655z"/>
		<path fill="#8D96A4" d="M215.846,7.301c0.286,1.134-0.261,2.25-1.226,2.496l-1.688,0.432c-0.964,0.246-1.979-0.475-2.269-1.605
			l0,0c-0.287-1.133,0.258-2.25,1.224-2.496l1.689-0.431C214.542,5.449,215.555,6.168,215.846,7.301L215.846,7.301z"/>
		<path fill="#8D96A4" d="M223.23,5.419c0.289,1.132-0.258,2.25-1.223,2.496l-1.691,0.433c-0.963,0.244-1.979-0.476-2.268-1.606l0,0
			c-0.287-1.133,0.26-2.25,1.225-2.497l1.689-0.432C221.927,3.568,222.941,4.286,223.23,5.419L223.23,5.419z"/>
		<path fill="#8D96A4" d="M201.068,11.067c0.289,1.133-0.258,2.248-1.221,2.495l-1.689,0.432c-0.965,0.246-1.979-0.476-2.27-1.606
			l0,0c-0.287-1.133,0.26-2.25,1.223-2.496l1.691-0.431C199.768,9.213,200.782,9.934,201.068,11.067L201.068,11.067z"/>
		<path fill="#8D96A4" d="M208.458,9.184c0.288,1.133-0.26,2.249-1.224,2.495l-1.688,0.432c-0.965,0.244-1.979-0.476-2.271-1.606
			l0,0c-0.287-1.132,0.259-2.25,1.224-2.496l1.69-0.431C207.152,7.331,208.169,8.051,208.458,9.184L208.458,9.184z"/>
	</g>
	<path fill="#FFFFFF" d="M122.625,116.281c-2.85-11.182-20.796,8.043-30.557-13.396c-4.78-10.497,5.588-20.208-0.41-27.186
		c-3.335-3.881-9.577,4.57-18.846,10.057c-7.403,4.379-17.737,3.228-25.891,10.562c-6.91,6.215-6.572,12.639-3.629,18.826
		l5.453-3.453l10.795,17.037l-4.79,3.032c1.531,2.207,2.757,4.302,3.353,6.255c3.409,11.188,2.145,26.604,11.908,22.94
		c9.763-3.666,16.676-25.93,25.447-31.992C101.48,124.801,123.972,121.57,122.625,116.281z"/>
	<circle fill="#231F20" cx="67.506" cy="152.305" r="3.886"/>
	<path fill="#231F20" d="M69.303,139.76c-0.245,2.134-2.172,3.662-4.304,3.418c-2.132-0.247-3.662-2.174-3.417-4.305
		s2.172-3.66,4.304-3.416C68.019,135.703,69.548,137.629,69.303,139.76z"/>
	<g>
		<path fill="#CDAC79" d="M215.438,39.662c2.711-0.69,12.104-11.723,17.709-15.069c6.998-4.179,9.146,3.087,14.244-2.98
			c6.78-8.078-0.867-15.42-9.068-13.002l-40.598,10.548c-3.929,1.674-2.494,6.481-4.683,8.068
			C191.738,28.17,84.994,89.572,84.994,89.572c-7.092,4.145,2.385,20.102,9.224,16.762l106.396-69.807
			C204.275,34.585,212.725,40.351,215.438,39.662z"/>
	</g>
	<path fill="none" stroke="#2A2D30" stroke-miterlimit="10" d="M205.867,34.411"/>
</g>
</svg>
