<?xml version="1.0" encoding="utf-8"?>
<!-- Generator: Adobe Illustrator 16.0.0, SVG Export Plug-In . SVG Version: 6.00 Build 0)  -->
<!DOCTYPE svg PUBLIC "-//W3C//DTD SVG 1.1//EN" "http://www.w3.org/Graphics/SVG/1.1/DTD/svg11.dtd">
<svg version="1.1" id="Layer_1" xmlns="http://www.w3.org/2000/svg" xmlns:xlink="http://www.w3.org/1999/xlink" x="0px" y="0px"
	 width="250px" height="250px" viewBox="0 0 250 250" enable-background="new 0 0 250 250" xml:space="preserve">
<g>
	<path fill="#474B53" d="M71.394,194.378c4.66,4.05,10.94,6.206,17.558,5.442c0,0,12.06,0.15,14.584-6.609
		c1.312-3.511,0.998-17.304-0.422-30.553L71.394,194.378z"/>
	<path fill="#474B53" d="M81.23,132.75c-12.502,1.439-21.47,12.743-20.029,25.244l1.298,11.277l33.783-33.782
		C90.245,131.391,81.23,132.75,81.23,132.75z"/>
	<path fill="#474B53" d="M183.531,82.238c13.328,23.284,12.182,56.631,7.125,85.295c-1.967,11.145,3.354,11.869,4.658,5.894
		c4.409-20.204,15.575-67.654-3.336-99.637L183.531,82.238z"/>
	<path fill="#474B53" d="M55.745,176.023l4.029-4.027c0.005-1.244-0.125-2.729-0.431-4.463
		c-8.839-50.083-5.752-114.476,65.656-114.477c18.288,0,32.085,4.231,42.358,11.357l8.344-8.342
		c-11.687-8.303-28.039-13.587-50.702-13.968C24.41,43.795,47.794,141.859,54.683,173.427
		C54.925,174.529,55.302,175.4,55.745,176.023z"/>
	<path fill="#474B53" d="M168.77,132.75c0,0-9.115-1.38-15.15,2.801c-6.037,4.182-9.731,50.764-7.154,57.66
		c2.525,6.762,14.586,6.609,14.586,6.609c12.501,1.439,23.803-7.528,25.239-20.03l2.512-21.796
		C190.238,145.493,181.271,134.189,168.77,132.75z"/>
	<path fill="#FF4040" d="M125,0.034c-69.035,0-125,55.964-125,125c0,69.034,55.964,125,125,125c69.035,0,125-55.966,125-125
		C250,55.999,194.033,0.034,125,0.034z M125,14.344c27.367,0,52.408,9.938,71.729,26.392l-17.797,17.796l-8.32,8.322l-72.085,72.085
		l-35.438,35.438l-22.385,22.387c-16.456-19.324-26.392-44.363-26.392-71.729C14.31,63.901,63.867,14.344,125,14.344z M125,235.725
		c-28.01,0-53.585-10.408-73.082-27.562l16.685-16.687l33.906-33.906l78.847-78.845l8.396-8.397l18.375-18.374
		c17.152,19.497,27.562,45.072,27.562,73.082C235.689,186.166,186.131,235.725,125,235.725z"/>
</g>
</svg>
