<?xml version="1.0" encoding="utf-8"?>
<!-- Generator: Adobe Illustrator 16.0.0, SVG Export Plug-In . SVG Version: 6.00 Build 0)  -->
<!DOCTYPE svg PUBLIC "-//W3C//DTD SVG 1.1//EN" "http://www.w3.org/Graphics/SVG/1.1/DTD/svg11.dtd">
<svg version="1.1" id="Layer_1" xmlns="http://www.w3.org/2000/svg" xmlns:xlink="http://www.w3.org/1999/xlink" x="0px" y="0px"
	 width="250px" height="241.482px" viewBox="0 0 250 241.482" enable-background="new 0 0 250 241.482" xml:space="preserve">
<g>
	<path fill="#CDAC79" d="M234.727,73.947H15.274c0,0-1.168-32.488,1.014-35.934c4.336-6.846,212.907-7.086,217.425,0
		C235.909,41.459,234.727,73.947,234.727,73.947z"/>
	<path fill="#FF4040" d="M233.39,38.013c0,0-16.419-31.687-25.01-35.785c-6.228-2.972-159.49-2.972-165.718,0
		c-8.591,4.098-26.051,35.785-26.051,35.785S74.018,35.326,125,35.326S233.39,38.013,233.39,38.013z"/>
	<circle fill="#2A2D30" cx="30.294" cy="56.488" r="5.406"/>
	<circle fill="#2A2D30" cx="48.994" cy="56.488" r="5.406"/>
	<path fill="#2A2D30" d="M228.725,116.133c0.709,35.607,4.208,105.389,7.478,124.387c0.149,1.338,2.841,1.246,2.985-0.055
		c2.541-19.066,3.391-88.648,2.756-124.332H228.725L228.725,116.133z M198.142,116.133c1.073,29.807,3.348,69.625,5.501,82.135
		c0.121,1.076,2.289,1.002,2.406-0.045c1.675-12.559,2.437-52.285,2.38-82.091L198.142,116.133L198.142,116.133z M43.833,116.133
		c-0.056,29.805,0.706,69.533,2.38,82.09c0.117,1.047,2.285,1.123,2.405,0.045c2.153-12.51,4.429-52.326,5.502-82.134
		L43.833,116.133L43.833,116.133z M10.317,116.133c-0.635,35.684,0.214,105.266,2.755,124.332c0.145,1.299,2.835,1.393,2.985,0.055
		c3.27-18.998,6.769-88.779,7.477-124.387H10.317z"/>
	<polygon fill="#FFFFFF" points="15.274,73.947 0,103.634 250,103.634 234.727,73.947 	"/>
	<polygon fill="#2A2D30" points="22.576,73.947 15.274,92.176 25.312,92.176 29.875,73.947 	"/>
	<polygon fill="#2A2D30" points="35.352,73.947 29.875,92.176 39.916,92.176 42.652,73.947 	"/>
	<polygon fill="#2A2D30" points="48.584,73.947 44.936,92.176 54.975,92.176 55.885,73.947 	"/>
	<polygon fill="#2A2D30" points="71.789,73.947 68.14,92.176 78.179,92.176 79.088,73.947 	"/>
	<polygon fill="#2A2D30" points="85.021,73.947 83.199,92.176 93.238,92.176 92.321,73.947 	"/>
	<polygon fill="#2A2D30" points="107.884,73.947 105.15,92.176 115.188,92.176 115.184,73.947 	"/>
	<polygon fill="#2A2D30" points="120.659,73.947 119.751,92.176 129.791,92.176 127.96,73.947 	"/>
	<polygon fill="#2A2D30" points="133.894,73.947 134.812,92.176 144.851,92.176 141.191,73.947 	"/>
	<polygon fill="#2A2D30" points="178.163,73.947 181.81,92.176 171.771,92.176 170.862,73.947 	"/>
	<polygon fill="#2A2D30" points="164.93,73.947 166.751,92.176 156.712,92.176 157.63,73.947 	"/>
	<polygon fill="#2A2D30" points="227.426,73.947 234.727,92.176 224.688,92.176 220.127,73.947 	"/>
	<polygon fill="#2A2D30" points="214.649,73.947 220.127,92.176 210.086,92.176 207.35,73.947 	"/>
	<polygon fill="#2A2D30" points="201.416,73.947 205.065,92.176 195.026,92.176 194.117,73.947 	"/>
	<rect x="0.001" y="103.633" fill="#8D96A4" width="249.999" height="12.5"/>
</g>
</svg>
