<?xml version="1.0" encoding="utf-8"?>
<!-- Generator: Adobe Illustrator 16.0.0, SVG Export Plug-In . SVG Version: 6.00 Build 0)  -->
<!DOCTYPE svg PUBLIC "-//W3C//DTD SVG 1.1//EN" "http://www.w3.org/Graphics/SVG/1.1/DTD/svg11.dtd">
<svg version="1.1" id="Layer_1" xmlns="http://www.w3.org/2000/svg" xmlns:xlink="http://www.w3.org/1999/xlink" x="0px" y="0px"
	 width="250px" height="250px" viewBox="0 0 250 250" enable-background="new 0 0 250 250" xml:space="preserve">
<path fill="#2A2D30" d="M118.618,248.476c0,0.842-0.683,1.524-1.525,1.524h-16.39c-0.842,0-1.525-0.683-1.525-1.524v-16.391
	c0-0.842,0.683-1.524,1.525-1.524h16.39c0.842,0,1.525,0.683,1.525,1.524V248.476z"/>
<path fill="#2A2D30" d="M61.868,240.389v5.17h-1.521V234.53h1.521v4.609h4.642v-4.609h1.521v11.028H66.51v-5.17H61.868z"/>
<path fill="#2A2D30" d="M78.062,241.333c0,2.609-1.376,4.418-3.762,4.418c-2.401,0-3.761-1.729-3.761-4.402
	c0-2.608,1.376-4.418,3.777-4.418S78.062,238.66,78.062,241.333z M72.124,241.349c0,2.193,0.768,3.218,2.177,3.218
	s2.177-1.024,2.177-3.233c0-2.193-0.768-3.218-2.161-3.218C72.908,238.115,72.124,239.14,72.124,241.349z"/>
<path fill="#2A2D30" d="M81.884,243.862c0,0.448,0.144,0.672,0.528,0.672c0.208,0,0.384-0.032,0.544-0.096l0.384,1.024
	c-0.4,0.191-0.816,0.288-1.249,0.288c-1.072,0-1.681-0.641-1.681-1.857v-10.164l1.473-0.176V243.862z"/>
<path fill="#2A2D30" d="M91.55,245.559h-1.296l-0.144-1.169c-0.544,0.849-1.393,1.361-2.433,1.361c-2.049,0-3.186-1.745-3.186-4.37
	c0-2.577,1.249-4.45,3.313-4.45c0.993,0,1.713,0.448,2.273,1.041v-4.418l1.473,0.176V245.559z M90.077,243.334v-4.13
	c-0.528-0.672-1.121-1.104-1.953-1.104c-1.265,0-2.049,1.057-2.049,3.249c0,2.226,0.704,3.233,1.921,3.233
	C88.941,244.582,89.517,244.118,90.077,243.334z"/>
<path fill="#FFFFFF" d="M106.905,240.885v4.674h-1.521V234.53h2.897c2.753,0,4.193,1.057,4.193,3.121c0,1.553-0.8,2.481-2.385,2.961
	l2.977,4.946h-1.809l-2.641-4.674H106.905z M108.442,239.716c1.537,0,2.417-0.576,2.417-2.064c0-1.377-0.784-1.937-2.593-1.937
	h-1.361v4.001H108.442z"/>
<path fill="#2A2D30" d="M130.601,245.175c-0.56,0.384-1.169,0.576-1.889,0.576c-1.425,0-2.272-0.833-2.272-2.401v-5.09h-1.473
	v-1.137h1.473v-1.904l1.473-0.177v2.081h2l-0.16,1.137h-1.84v5.026c0,0.848,0.271,1.248,1.008,1.248
	c0.368,0,0.704-0.112,1.121-0.368L130.601,245.175z"/>
<path fill="#2A2D30" d="M138.874,241.333c0,2.609-1.376,4.418-3.762,4.418c-2.401,0-3.761-1.729-3.761-4.402
	c0-2.608,1.376-4.418,3.777-4.418C137.529,236.931,138.874,238.66,138.874,241.333z M132.936,241.349
	c0,2.193,0.768,3.218,2.177,3.218s2.177-1.024,2.177-3.233c0-2.193-0.768-3.218-2.16-3.218
	C133.72,238.115,132.936,239.14,132.936,241.349z"/>
<path fill="#2A2D30" d="M150.041,237.027l-0.272,1.44c-0.256-0.064-0.433-0.096-0.735-0.096c-1.057,0-1.666,0.752-2.018,2.368v4.818
	h-1.473v-8.436h1.265l0.144,1.713c0.449-1.265,1.232-1.905,2.258-1.905C149.48,236.931,149.785,236.963,150.041,237.027z"/>
<path fill="#2A2D30" d="M157.897,241.845h-5.378c0.144,1.953,1.057,2.705,2.272,2.705c0.833,0,1.456-0.224,2.192-0.736l0.641,0.881
	c-0.832,0.656-1.776,1.057-2.945,1.057c-2.353,0-3.729-1.649-3.729-4.322c0-2.625,1.328-4.498,3.505-4.498
	c2.272,0,3.474,1.585,3.474,4.162C157.93,241.381,157.913,241.653,157.897,241.845z M156.473,240.66
	c0-1.648-0.656-2.561-1.984-2.561c-1.121,0-1.857,0.784-1.969,2.657h3.953V240.66z"/>
<path fill="#2A2D30" d="M166.009,237.844l-0.72,0.96c-0.561-0.448-1.089-0.656-1.793-0.656c-1.329,0-2.161,1.041-2.161,3.233
	c0,2.209,0.832,3.121,2.161,3.121c0.704,0,1.2-0.224,1.809-0.688l0.704,1.009c-0.753,0.608-1.601,0.929-2.577,0.929
	c-2.273,0-3.682-1.617-3.682-4.338c0-2.689,1.393-4.482,3.682-4.482C164.424,236.931,165.225,237.188,166.009,237.844z"/>
<path fill="#2A2D30" d="M174.762,241.333c0,2.609-1.377,4.418-3.762,4.418c-2.4,0-3.762-1.729-3.762-4.402
	c0-2.608,1.377-4.418,3.777-4.418C173.417,236.931,174.762,238.66,174.762,241.333z M168.823,241.349
	c0,2.193,0.769,3.218,2.177,3.218s2.177-1.024,2.177-3.233c0-2.193-0.769-3.218-2.161-3.218
	C169.607,238.115,168.823,239.14,168.823,241.349z"/>
<path fill="#2A2D30" d="M181.688,237.027l-0.272,1.44c-0.256-0.064-0.432-0.096-0.736-0.096c-1.057,0-1.664,0.752-2.017,2.368v4.818
	h-1.473v-8.436h1.265l0.145,1.713c0.447-1.265,1.232-1.905,2.256-1.905C181.128,236.931,181.432,236.963,181.688,237.027z"/>
<path fill="#2A2D30" d="M189.737,245.559h-1.296l-0.145-1.169c-0.545,0.849-1.393,1.361-2.434,1.361
	c-2.049,0-3.186-1.745-3.186-4.37c0-2.577,1.249-4.45,3.314-4.45c0.992,0,1.713,0.448,2.272,1.041v-4.418l1.473,0.176V245.559z
	 M188.265,243.334v-4.13c-0.528-0.672-1.12-1.104-1.952-1.104c-1.266,0-2.049,1.057-2.049,3.249c0,2.226,0.703,3.233,1.92,3.233
	C187.129,244.582,187.705,244.118,188.265,243.334z"/>
<g>
	<g>
		<path fill="#474B53" d="M89.084,81.029v32.787h0.137c1.542,18.414,16.966,32.878,35.778,32.878
			c18.812,0,34.235-14.467,35.778-32.878h0.138V81.03c-5.867-1.417-17.842-3.604-35.916-3.604
			C106.927,77.426,94.952,79.612,89.084,81.029z"/>
		<path fill="#474B53" d="M125,0c-19.836,0-35.916,16.08-35.916,35.915v32.333c7.406-1.14,23.16-3.306,35.916-3.306
			c12.757,0,28.512,2.167,35.916,3.306V35.915C160.916,16.08,144.836,0,125,0z"/>
		<path fill="#8D96A4" d="M89.084,68.248v12.781c5.868-1.417,17.842-3.603,35.916-3.603s30.049,2.186,35.916,3.604V68.248
			c-7.404-1.139-23.159-3.306-35.916-3.306C112.244,64.942,96.49,67.108,89.084,68.248z"/>
	</g>
	<path fill="#8D96A4" d="M175.889,75.753c-3.574,0-6.472,2.741-6.472,6.123v29.857c0,24.53-19.886,44.417-44.417,44.417
		s-44.417-19.887-44.417-44.417V81.876c0-3.381-2.898-6.123-6.475-6.123c-3.574,0-6.473,2.741-6.473,6.123v30.828
		c0,0.102,0.011,0.201,0.016,0.301c0.631,28.961,22.727,52.625,51.011,55.735v27.7c-19.69,0.854-34.764,5.627-34.764,11.384
		c0,6.362,18.401,11.521,41.102,11.521c22.698,0,41.102-5.158,41.102-11.521c0-5.759-15.074-10.528-34.766-11.384v-27.7
		c28.285-3.109,50.382-26.774,51.014-55.735c0.004-0.101,0.015-0.199,0.015-0.301V81.876
		C182.363,78.495,179.465,75.753,175.889,75.753z"/>
	<g>
		<circle fill="#8D96A4" cx="143.104" cy="24.746" r="4.371"/>
		<circle fill="#8D96A4" cx="106.896" cy="24.746" r="4.37"/>
		<circle fill="#8D96A4" cx="106.896" cy="42.228" r="4.37"/>
		<circle fill="#8D96A4" cx="124.812" cy="16.005" r="4.371"/>
		<circle fill="#8D96A4" cx="124.812" cy="33.487" r="4.371"/>
		<circle fill="#8D96A4" cx="143.104" cy="42.228" r="4.371"/>
	</g>
</g>
</svg>
