<?xml version="1.0" encoding="utf-8"?>
<!-- Generator: Adobe Illustrator 16.0.0, SVG Export Plug-In . SVG Version: 6.00 Build 0)  -->
<!DOCTYPE svg PUBLIC "-//W3C//DTD SVG 1.1//EN" "http://www.w3.org/Graphics/SVG/1.1/DTD/svg11.dtd">
<svg version="1.1" id="Layer_1" xmlns="http://www.w3.org/2000/svg" xmlns:xlink="http://www.w3.org/1999/xlink" x="0px" y="0px"
	 width="250px" height="250px" viewBox="0 0 250 250" enable-background="new 0 0 250 250" xml:space="preserve">
<g>
	<path fill="#FF4040" d="M45.651,53.32c17.45-5.635,33.125-6.215,41.876-5.944c-13.728-18.067-33.286-28.759-51.214-22.97
		C18.369,30.202,8.757,50.344,8.205,73.051C15.234,67.682,28.461,58.872,45.651,53.32z"/>
	<path fill="#DA6EFF" d="M10.826,96.698c0.5,2.02,1.069,4.028,1.712,6.018c1.422,4.403,3.513,8.525,6.044,12.353
		c6.08-4.665,20.65-14.754,40.205-21.069c19.907-6.429,37.362-6.72,44.933-6.455c-0.188-4.575-0.902-9.131-2.321-13.525
		c-0.632-1.958-1.333-3.889-2.094-5.79c-5.568-0.877-21.428-2.085-46.86,6.128C26.095,82.867,14.619,92.741,10.826,96.698z"/>
	<path fill="#CDAC79" d="M65.965,116.224c-15.287,4.937-25.437,10.738-31.973,15.613c10.666,8.91,21.886,14.678,26.367,16.945
		c0.11,0.057,0.225,0.111,0.332,0.166c9.062,4.639,12.388,14.236,16.55,27.125c4.186,12.961,3.346,27.246,7.513,42.256
		c0.048,0.176,0.099,0.354,0.15,0.533c2.74,9.562,9.935,26.826,18.756,29.934c0.5,0.176,1.004,0.307,1.514,0.387
		c0.339,0.055,0.681,0.086,1.024,0.096c0.859,0.021,1.73-0.1,2.61-0.383c0.881-0.285,1.659-0.69,2.342-1.217
		c0.273-0.209,0.532-0.434,0.775-0.676c0.366-0.363,0.699-0.766,1-1.199c5.339-7.68,1.078-25.891-2.293-35.25
		c-0.064-0.176-0.127-0.35-0.19-0.52c-5.401-14.613-14.436-25.709-18.622-38.67c-4.162-12.889-7.079-22.619-2.44-31.682
		c0.054-0.107,0.116-0.224,0.172-0.328c2.296-4.438,7.974-15.584,11.419-28.948C92.64,110.255,80.881,111.407,65.965,116.224z"/>
	<path fill="#FF4040" d="M204.35,31.211c-17.45-5.635-33.125-6.216-41.877-5.944C176.2,7.201,195.76-3.492,213.686,2.298
		c17.945,5.795,27.558,25.937,28.109,48.645C234.766,45.573,221.54,36.763,204.35,31.211z"/>
	<path fill="#DA6EFF" d="M239.174,74.589c-0.5,2.02-1.064,4.028-1.711,6.018c-1.423,4.403-3.515,8.525-6.045,12.353
		c-6.078-4.665-20.646-14.754-40.205-21.069c-19.906-6.429-37.361-6.72-44.933-6.455c0.188-4.575,0.901-9.131,2.321-13.525
		c0.632-1.958,1.332-3.889,2.094-5.79c5.568-0.877,21.429-2.085,46.859,6.128C223.904,60.758,235.383,70.632,239.174,74.589z"/>
	<path fill="#CDAC79" d="M184.035,94.115c15.288,4.937,25.438,10.736,31.975,15.612c-10.666,8.909-21.888,14.678-26.367,16.947
		c-0.105,0.056-0.227,0.11-0.328,0.165c-9.062,4.639-12.393,14.237-16.555,27.125c-4.186,12.961-3.347,27.244-7.513,42.256
		c-0.049,0.178-0.099,0.354-0.151,0.533c-2.734,9.562-9.934,26.826-18.756,29.934c-0.498,0.181-1.004,0.31-1.513,0.392
		c-0.34,0.055-0.681,0.086-1.024,0.096c-0.854,0.021-1.729-0.103-2.605-0.385c-0.881-0.283-1.658-0.695-2.346-1.218
		c-0.271-0.209-0.527-0.436-0.771-0.676c-0.361-0.362-0.693-0.768-1.001-1.201c-5.339-7.678-1.073-25.889,2.294-35.248
		c0.062-0.176,0.126-0.352,0.188-0.521c5.4-14.61,14.438-25.709,18.621-38.67c4.162-12.889,7.078-22.618,2.438-31.683
		c-0.054-0.107-0.114-0.219-0.173-0.327c-2.295-4.437-7.975-15.581-11.419-28.948C157.36,88.146,169.119,89.298,184.035,94.115z"/>
</g>
</svg>
