<?xml version="1.0" encoding="utf-8"?>
<!-- Generator: Adobe Illustrator 16.0.0, SVG Export Plug-In . SVG Version: 6.00 Build 0)  -->
<!DOCTYPE svg PUBLIC "-//W3C//DTD SVG 1.1//EN" "http://www.w3.org/Graphics/SVG/1.1/DTD/svg11.dtd">
<svg version="1.1" id="Layer_1" xmlns="http://www.w3.org/2000/svg" xmlns:xlink="http://www.w3.org/1999/xlink" x="0px" y="0px"
	 width="250px" height="250px" viewBox="0 0 250 250" enable-background="new 0 0 250 250" xml:space="preserve">
<g>
	<g>
		<g>
			<path fill="#8D96A4" d="M125,0.082c-13.171,0-23.849,10.678-23.849,23.849S111.829,47.78,125,47.78
				c13.17,0,23.848-10.677,23.848-23.849C148.848,10.759,138.17,0.082,125,0.082z M125,44.311c-11.255,0-20.379-9.124-20.379-20.379
				S113.745,3.552,125,3.552c11.254,0,20.379,9.124,20.379,20.379C145.379,35.186,136.254,44.311,125,44.311z"/>
			<path fill="#474B54" d="M125,3.552c-11.255,0-20.379,9.124-20.379,20.379c0,11.255,9.125,20.379,20.379,20.379
				c11.254,0,20.379-9.124,20.379-20.379C145.379,12.676,136.254,3.552,125,3.552z M125,30.298c-3.516,0-6.367-2.851-6.367-6.367
				s2.851-6.367,6.367-6.367s6.366,2.851,6.366,6.367S128.516,30.298,125,30.298z"/>
		</g>
		<g>
			<path fill="#8D96A4" d="M125,202.219c-13.17,0-23.849,10.68-23.849,23.85c0,13.172,10.678,23.85,23.849,23.85
				c13.172,0,23.848-10.678,23.848-23.85C148.848,212.898,138.172,202.219,125,202.219z M125,246.448
				c-11.254,0-20.379-9.125-20.379-20.38c0-11.256,9.125-20.379,20.379-20.379c11.254,0,20.379,9.123,20.379,20.379
				C145.379,237.323,136.254,246.448,125,246.448z"/>
			<path fill="#474B54" d="M125,205.689c-11.254,0-20.379,9.123-20.379,20.379c0,11.255,9.125,20.38,20.379,20.38
				c11.254,0,20.379-9.125,20.379-20.38C145.379,214.812,136.254,205.689,125,205.689z M125,232.436
				c-3.516,0-6.366-2.852-6.366-6.367c0-3.514,2.851-6.365,6.366-6.365c3.516,0,6.368,2.852,6.368,6.365
				C131.367,229.584,128.516,232.436,125,232.436z"/>
		</g>
	</g>
	<g>
		<g>
			<path fill="#8D96A4" d="M36.669,36.669c-9.313,9.313-9.313,24.414,0,33.728c9.313,9.313,24.414,9.313,33.728,0
				s9.313-24.415,0-33.728C61.083,27.356,45.982,27.356,36.669,36.669z M67.943,67.944c-7.958,7.958-20.862,7.958-28.821,0
				c-7.958-7.959-7.958-20.862,0-28.821c7.958-7.958,20.862-7.958,28.821,0C75.901,47.082,75.901,59.985,67.943,67.944z"/>
			<path fill="#474B54" d="M39.124,39.123c-7.958,7.959-7.958,20.862,0,28.821c7.958,7.958,20.862,7.958,28.821,0
				c7.958-7.958,7.958-20.862,0-28.821C59.984,31.165,47.082,31.165,39.124,39.123z M58.036,58.035
				c-2.486,2.486-6.518,2.486-9.003,0c-2.487-2.486-2.487-6.518,0-9.003c2.485-2.487,6.517-2.487,9.003,0
				C60.521,51.518,60.521,55.549,58.036,58.035z"/>
		</g>
		<g>
			<path fill="#8D96A4" d="M179.602,179.604c-9.311,9.312-9.312,24.414,0,33.728c9.314,9.313,24.416,9.312,33.729,0
				c9.312-9.313,9.312-24.414,0-33.728C204.018,170.289,188.916,170.289,179.602,179.604z M210.875,210.876
				c-7.957,7.959-20.861,7.959-28.82-0.001c-7.957-7.958-7.957-20.861,0.002-28.818c7.957-7.959,20.861-7.959,28.818-0.002
				C218.836,190.014,218.836,202.917,210.875,210.876z"/>
			<path fill="#474B54" d="M182.057,182.057c-7.959,7.957-7.959,20.86-0.002,28.818c7.959,7.96,20.863,7.96,28.82,0.001
				c7.961-7.959,7.961-20.862,0-28.821C202.918,174.098,190.014,174.098,182.057,182.057z M200.969,200.968
				c-2.486,2.486-6.518,2.486-9.004,0c-2.486-2.487-2.486-6.518,0-9.004c2.486-2.485,6.518-2.485,9.004,0
				C203.455,194.45,203.455,198.48,200.969,200.968z"/>
		</g>
	</g>
	<g>
		<g>
			<path fill="#8D96A4" d="M0.083,125c0,13.17,10.677,23.848,23.849,23.85c13.17,0,23.849-10.679,23.849-23.85
				s-10.678-23.85-23.849-23.85C10.759,101.151,0.083,111.828,0.083,125z M44.311,125c0,11.254-9.125,20.379-20.379,20.379
				c-11.255,0-20.38-9.124-20.379-20.379c0-11.255,9.124-20.38,20.379-20.379C35.186,104.621,44.311,113.746,44.311,125z"/>
			<path fill="#474B54" d="M3.551,125c0,11.255,9.124,20.379,20.379,20.379c11.254,0,20.379-9.125,20.379-20.379
				s-9.125-20.379-20.379-20.379C12.675,104.62,3.551,113.745,3.551,125z M30.297,125c0,3.516-2.85,6.366-6.366,6.366
				c-3.517,0-6.367-2.851-6.367-6.366c0-3.515,2.851-6.367,6.367-6.366C27.448,118.634,30.297,121.484,30.297,125z"/>
		</g>
		<g>
			<path fill="#8D96A4" d="M202.219,125c0.002,13.17,10.678,23.85,23.85,23.85c13.172-0.002,23.85-10.68,23.85-23.85
				c0-13.172-10.678-23.849-23.85-23.849S202.221,111.828,202.219,125z M246.447,125c0,11.254-9.123,20.379-20.381,20.379
				c-11.254,0-20.379-9.125-20.377-20.379c-0.002-11.256,9.123-20.38,20.377-20.38C237.322,104.62,246.447,113.744,246.447,125z"/>
			<path fill="#474B54" d="M205.689,125c-0.002,11.254,9.123,20.379,20.377,20.379c11.258,0,20.381-9.125,20.381-20.379
				c0-11.256-9.125-20.38-20.381-20.38C214.812,104.62,205.688,113.744,205.689,125z M232.436,125c0,3.516-2.852,6.366-6.367,6.366
				s-6.365-2.851-6.365-6.366c0-3.517,2.85-6.367,6.365-6.367S232.436,121.483,232.436,125z"/>
		</g>
	</g>
	<g>
		<g>
			<path fill="#8D96A4" d="M36.669,213.33c9.313,9.312,24.414,9.312,33.728,0c9.313-9.312,9.313-24.414,0-33.729
				c-9.313-9.313-24.414-9.312-33.728,0C27.355,188.915,27.355,204.016,36.669,213.33z M67.943,182.057
				c7.958,7.957,7.958,20.86,0,28.818c-7.958,7.96-20.862,7.96-28.821,0.001c-7.958-7.959-7.958-20.862,0-28.819
				C47.082,174.098,59.985,174.098,67.943,182.057z"/>
			<path fill="#474B54" d="M39.124,210.876c7.958,7.959,20.862,7.959,28.821-0.001c7.958-7.958,7.958-20.861,0-28.818
				c-7.958-7.959-20.862-7.959-28.82,0C31.165,190.014,31.166,202.917,39.124,210.876z M58.036,191.964
				c2.486,2.486,2.486,6.517,0,9.004c-2.486,2.487-6.518,2.487-9.003,0c-2.487-2.485-2.487-6.518,0-9.004
				C51.519,189.479,55.548,189.479,58.036,191.964z"/>
		</g>
		<g>
			<path fill="#8D96A4" d="M179.602,70.397c9.314,9.312,24.414,9.314,33.729,0c9.312-9.315,9.312-24.415,0-33.728
				c-9.312-9.314-24.412-9.314-33.729,0C170.289,45.984,170.289,61.083,179.602,70.397z M210.875,39.123
				c7.961,7.958,7.961,20.861,0,28.821c-7.957,7.958-20.861,7.958-28.818,0c-7.959-7.958-7.961-20.861-0.002-28.82
				S202.918,31.165,210.875,39.123z"/>
			<path fill="#474B54" d="M182.057,67.943c7.957,7.958,20.861,7.958,28.818,0c7.961-7.959,7.961-20.863,0-28.821
				c-7.957-7.958-20.861-7.958-28.82,0C174.096,47.082,174.098,59.985,182.057,67.943z M200.969,49.032
				c2.484,2.486,2.484,6.517-0.002,9.003c-2.486,2.486-6.518,2.486-9.002,0c-2.486-2.486-2.486-6.518-0.002-9.003
				C194.449,46.545,198.48,46.545,200.969,49.032z"/>
		</g>
	</g>
	<path fill="#CDAC7A" d="M125,21.999c-56.353,0-102.034,45.683-102.034,102.034c0,56.354,45.682,102.035,102.034,102.035
		s102.034-45.684,102.034-102.035C227.033,67.682,181.352,21.999,125,21.999z M125,221.43c-53.791,0-97.397-43.604-97.397-97.396
		S71.208,26.637,125,26.637c53.792,0,97.395,43.606,97.395,97.397S178.791,221.43,125,221.43z"/>
	<circle fill="#FFFFFF" cx="125" cy="124.033" r="97.356"/>
</g>
</svg>
