<?xml version="1.0" encoding="utf-8"?>
<!-- Generator: Adobe Illustrator 16.0.0, SVG Export Plug-In . SVG Version: 6.00 Build 0)  -->
<!DOCTYPE svg PUBLIC "-//W3C//DTD SVG 1.1//EN" "http://www.w3.org/Graphics/SVG/1.1/DTD/svg11.dtd">
<svg version="1.1" id="Layer_1" xmlns="http://www.w3.org/2000/svg" xmlns:xlink="http://www.w3.org/1999/xlink" x="0px" y="0px"
	 width="250px" height="151.761px" viewBox="0 0 250 151.761" enable-background="new 0 0 250 151.761" xml:space="preserve">
<g>
	<g>
		<path fill="#41B823" d="M120.33,34.328c0-4.261-0.819-8.331-2.306-12.063c0.59-1.593,0.481-3.467-0.463-5.101
			c-0.94-1.63-2.503-2.66-4.173-2.949C108.331,7.773,100.9,3.285,92.413,2.062C91.327,0.804,89.68,0,87.836,0
			c-1.829,0-3.462,0.79-4.549,2.028c-8.61,1.173-16.151,5.706-21.258,12.236c-1.573,0.344-3.028,1.35-3.921,2.898
			c-0.889,1.538-1.035,3.287-0.559,4.816c-1.56,3.808-2.423,7.978-2.423,12.348s0.863,8.539,2.423,12.349
			c-0.478,1.527-0.331,3.277,0.558,4.813c0.893,1.548,2.348,2.556,3.921,2.897c5.106,6.533,12.649,11.067,21.26,12.24
			c1.085,1.237,2.719,2.026,4.548,2.026c1.844,0,3.49-0.806,4.577-2.062c8.488-1.222,15.92-5.711,20.977-12.154
			c1.67-0.287,3.232-1.318,4.173-2.948c0.943-1.633,1.053-3.506,0.462-5.101C119.512,42.659,120.33,38.59,120.33,34.328z"/>
		<path fill="#474B53" d="M87.729,3.78c-16.695,0-30.23,13.562-30.23,30.292c0,16.729,13.535,30.292,30.23,30.292
			c16.696,0,30.231-13.562,30.231-30.292C117.96,17.342,104.425,3.78,87.729,3.78z"/>
		<ellipse fill="#FFFFFF" cx="87.729" cy="34.073" rx="27.728" ry="27.785"/>
	</g>
	<g>
		<path fill="#41B823" d="M55.167,71.062c0-3.603-0.699-7.041-1.955-10.198c0.503-1.35,0.414-2.938-0.387-4.324
			c-0.798-1.383-2.125-2.255-3.543-2.496c-4.278-5.447-10.556-9.244-17.731-10.277c-0.919-1.066-2.314-1.748-3.877-1.748
			c-1.55,0-2.934,0.671-3.853,1.725c-7.278,0.994-13.649,4.824-17.968,10.344c-1.336,0.289-2.571,1.143-3.33,2.455
			c-0.752,1.303-0.877,2.785-0.471,4.08C0.733,63.842,0,67.367,0,71.063c0,3.697,0.733,7.22,2.052,10.441
			c-0.407,1.295-0.282,2.775,0.47,4.078c0.759,1.312,1.994,2.168,3.33,2.455c4.318,5.521,10.69,9.354,17.97,10.348
			c0.918,1.053,2.303,1.723,3.852,1.723c1.563,0,2.958-0.682,3.876-1.747c7.178-1.033,13.457-4.833,17.735-10.28
			c1.417-0.24,2.744-1.113,3.542-2.496c0.8-1.388,0.891-2.973,0.387-4.324C54.468,78.104,55.167,74.665,55.167,71.062z"/>
		<path fill="#474B53" d="M27.728,45.327c-14.126,0-25.577,11.475-25.577,25.629c0,0.018,0.001,0.034,0.001,0.053
			c0,0.018-0.001,0.033-0.001,0.053c0,14.096,11.426,25.525,25.523,25.525c0.008,0,0.018-0.002,0.026-0.002
			c0.007,0,0.017,0.002,0.026,0.002c14.126,0,25.579-11.477,25.579-25.631S41.854,45.327,27.728,45.327z"/>
		<ellipse fill="#FFFFFF" cx="27.584" cy="70.957" rx="22.934" ry="22.981"/>
	</g>
</g>
<g>
	<g>
		<path fill="#41B823" d="M131.975,46.387c-0.59,1.595-0.48,3.468,0.463,5.101c0.941,1.63,2.502,2.661,4.172,2.948
			c5.059,6.443,12.49,10.933,20.979,12.154c1.086,1.256,2.732,2.062,4.576,2.062c1.828,0,3.463-0.789,4.549-2.026
			c8.609-1.173,16.152-5.707,21.26-12.24c1.572-0.342,3.027-1.35,3.92-2.897c0.889-1.536,1.037-3.286,0.559-4.813
			c1.561-3.81,2.422-7.979,2.422-12.349s-0.861-8.54-2.422-12.348c0.477-1.529,0.33-3.278-0.559-4.816
			c-0.895-1.548-2.348-2.554-3.922-2.898c-5.107-6.53-12.648-11.063-21.258-12.236C165.627,0.79,163.992,0,162.164,0
			c-1.844,0-3.49,0.804-4.576,2.062c-8.488,1.223-15.918,5.711-20.977,12.153c-1.67,0.289-3.232,1.319-4.172,2.949
			c-0.945,1.634-1.053,3.508-0.463,5.101c-1.488,3.732-2.307,7.802-2.307,12.063C129.67,38.59,130.488,42.659,131.975,46.387z"/>
		<path fill="#474B53" d="M132.039,34.072c0,16.729,13.535,30.292,30.232,30.292c16.695,0,30.23-13.562,30.23-30.292
			c0-16.73-13.535-30.292-30.23-30.292C145.574,3.78,132.039,17.342,132.039,34.072z"/>
		<ellipse fill="#FFFFFF" cx="162.271" cy="34.073" rx="27.727" ry="27.785"/>
	</g>
	<g>
		<path fill="#41B823" d="M196.785,81.26c-0.504,1.352-0.412,2.937,0.389,4.324c0.797,1.383,2.125,2.256,3.541,2.496
			c4.277,5.447,10.557,9.247,17.734,10.28c0.918,1.065,2.314,1.747,3.877,1.747c1.549,0,2.934-0.67,3.852-1.723
			c7.281-0.994,13.652-4.826,17.971-10.348c1.336-0.287,2.57-1.143,3.33-2.455c0.752-1.303,0.877-2.783,0.469-4.078
			c1.32-3.222,2.053-6.744,2.053-10.441c0-3.696-0.732-7.221-2.053-10.441c0.406-1.295,0.281-2.777-0.471-4.08
			c-0.758-1.312-1.994-2.166-3.33-2.455c-4.318-5.52-10.689-9.35-17.967-10.344c-0.92-1.054-2.303-1.725-3.854-1.725
			c-1.562,0-2.959,0.682-3.877,1.748c-7.176,1.033-13.453,4.83-17.73,10.277c-1.418,0.241-2.746,1.113-3.543,2.496
			c-0.803,1.387-0.891,2.975-0.389,4.324c-1.256,3.157-1.955,6.596-1.955,10.198S195.531,78.104,196.785,81.26z"/>
		<path fill="#474B53" d="M196.695,70.956c0,14.154,11.453,25.631,25.578,25.631c0.01,0,0.02-0.002,0.027-0.002
			s0.018,0.002,0.025,0.002c14.098,0,25.523-11.43,25.523-25.525c0-0.02-0.002-0.035-0.002-0.053c0-0.019,0.002-0.035,0.002-0.053
			c0-14.154-11.451-25.629-25.578-25.629C208.146,45.327,196.695,56.801,196.695,70.956z"/>
		<ellipse fill="#FFFFFF" cx="222.416" cy="70.957" rx="22.934" ry="22.981"/>
	</g>
</g>
<path fill="#CDAC79" d="M117.776,85.846c1.354,0.562,3.265,0.055,4.696-1.379c1.752-1.752,2.125-4.219,0.834-5.511
	s-3.759-0.917-5.512,0.836c-1.432,1.433-1.942,3.34-1.376,4.694c-8.909,6.242-37.812,33.156-51.763,47.108
	c-16.235,16.235-14.58,17.271-12.919,18.929c1.662,1.664,2.697,3.317,18.932-12.916C84.619,123.657,111.535,94.753,117.776,85.846z"
	/>
<path fill="#CDAC79" d="M134.252,103.528c0.982,1.095,2.93,1.443,4.836,0.763c2.332-0.841,3.723-2.914,3.105-4.632
	c-0.617-1.719-3.01-2.432-5.34-1.598c-1.908,0.686-3.183,2.192-3.25,3.659c-10.721,1.845-48.345,13.854-66.916,20.519
	c-21.611,7.756-20.555,9.398-19.761,11.609c0.792,2.209,1.023,4.149,22.633-3.604C88.131,123.578,124.807,108.922,134.252,103.528z"
	/>
</svg>
