<svg xmlns="http://www.w3.org/2000/svg" xmlns:xlink="http://www.w3.org/1999/xlink" version="1.1" id="Layer_1" x="0px" y="0px" width="100px" height="100px" viewBox="5.0 -10.0 100.0 135.0" enable-background="new 0 0 100 100" xml:space="preserve">
<path fill="#000000" d="M33.855,72.812c-3.029,0.877-6.146,1.211-9.244,1.194c-3.093-0.047-6.207-0.271-9.25-1.084  c-1.517-0.413-3.02-0.96-4.44-1.754c-0.706-0.41-1.39-0.882-2.021-1.447c2.575,2.986,10.055,5.153,16.324,5.153  c6.929,0,14.431-2.65,15.882-6.126C39.061,70.88,36.424,72.033,33.855,72.812z"/>
<path fill="#000000" d="M83.833,72.792c-2.897,0.884-5.888,1.222-8.857,1.202c-2.965-0.045-5.952-0.271-8.862-1.092  c-1.451-0.42-2.887-0.968-4.237-1.769c-0.932-0.594-1.876-1.292-2.613-2.228c1.207,2.551,5.68,4.631,10.728,5.51  c0,0.005,0,0.009,0,0.013c0.182,0.038,0.382,0.053,0.567,0.085c0.102,0.019,0.202,0.033,0.305,0.048  c1.338,0.225,2.741,0.372,4.221,0.372c1.902,0,3.711-0.2,5.363-0.563c5.369-0.983,10.021-3.328,10.687-6.134  C89.174,70.649,86.474,71.956,83.833,72.792z"/>
<path fill="#000000" d="M98.216,35.257c0-4.71-10.313-8.53-23.037-8.53c-12.722,0-23.036,3.819-23.036,8.53  c0,0.217,0.031,0.434,0.079,0.648c-0.181,2.267,0.534,6.024,2.331,7.465c0.833,3.216,1.556,6.431,2.184,9.687l-13.161,0.188  c0.65-3.172,1.382-6.303,2.214-9.436c0.01-0.008,0.021-0.016,0.032-0.024c1.602-1.644,2.64-4.721,2.173-7.069  c0.222-0.476,0.361-0.961,0.361-1.46c0-4.71-10.314-8.53-23.037-8.53c-12.723,0-23.037,3.819-23.037,8.53  c0,0.204,0.044,0.404,0.082,0.603c0,0.001-0.001,0.003-0.002,0.004c-0.182,2.166,0.472,5.715,2.113,7.289  c1.714,7.791,2.451,15.534,3.517,24.015c-0.013,0.128-0.02,0.256-0.02,0.386c0,0.487,0.146,0.963,0.403,1.424  c0.799,0.779,1.735,1.353,2.668,1.821c1.419,0.706,2.908,1.174,4.414,1.508c3.013,0.668,6.086,0.9,9.153,0.88  c3.066,0.081,6.133-0.257,9.135-0.991c1.5-0.371,2.981-0.876,4.396-1.599c1.078-0.533,2.115-1.215,3.052-2.08  c0.106-0.316,0.18-0.636,0.18-0.963c0-0.241-0.023-0.477-0.066-0.71c0.171-1.304,0.353-2.584,0.543-3.855h16.543  c0.194,1.377,0.38,2.769,0.558,4.18c-0.014,0.128-0.021,0.256-0.021,0.386c0,0.342,0.072,0.678,0.188,1.008  c0.813,0.987,1.854,1.67,2.887,2.216c1.347,0.714,2.77,1.185,4.208,1.526c2.88,0.678,5.826,0.915,8.766,0.895  c2.936,0.08,5.874-0.26,8.743-1.005c1.434-0.375,2.849-0.887,4.191-1.616c1.177-0.614,2.289-1.435,3.265-2.48  c0.074-0.179,0.12-0.361,0.12-0.543c0-0.241-0.023-0.477-0.065-0.71c0.24-1.847,0.48-3.65,0.727-5.435  c0.959-6.072,2.172-11.832,3.708-17.611c0.006-0.005,0.012-0.009,0.017-0.012c1.6-1.646,2.639-4.724,2.17-7.074  C98.082,36.24,98.216,35.754,98.216,35.257z M25.079,28.254c11.531,0,20.879,3.461,20.879,7.73s-9.348,7.729-20.879,7.729  c-11.531,0-20.878-3.459-20.878-7.729S13.548,28.254,25.079,28.254z M38.744,44.634c0,0.025,0.012,0.05,0.01,0.074l-0.735,5.271  c0.499,0.438,0.803,1.037,0.728,1.553c-0.013,0.082-0.036,0.154-0.064,0.223c0.237,1.387,0.091,2.905,0.091,2.905  s-1.751,2.457-1.792,5.123l-0.583,0.764l-0.905-0.5l0.034-0.026l-0.03,0.017c-0.629-3.564-0.303-8.331-0.303-8.331l0.336-1.347  c-0.002-0.063-0.004-0.125,0.005-0.186c0.069-0.469,0.433-0.748,0.92-0.789l0.583-4.178c-0.07,0.021-0.139,0.046-0.208,0.067  c-3.818,1.087-7.743,1.502-11.644,1.482c-3.896-0.059-7.816-0.336-11.652-1.343c-1.033-0.278-2.059-0.609-3.068-1.005l1.463,5.116  c0.61-0.025,1.093,0.206,1.228,0.662c0.018,0.059,0.021,0.123,0.026,0.183l0.562,1.296c0,0,0.911,4.696,0.507,8.325l-0.042-0.015  l0.048,0.025l-1.07,0.612l-0.807-0.679c-0.333-2.646-2.771-4.857-2.771-4.857s-0.343-1.492-0.195-2.902  c-0.043-0.064-0.08-0.135-0.103-0.213c-0.15-0.504,0.164-1.139,0.739-1.642l-1.472-5.143c-0.086-0.3,0.263-0.73,0.778-0.958  c0.128-0.057,0.253-0.096,0.372-0.118c-0.607-0.263-1.209-0.543-1.798-0.867c-0.891-0.508-1.758-1.095-2.558-1.802  c-0.79-0.709-1.56-1.526-2.032-2.598c1.164,1.96,2.979,3.062,4.745,3.938c1.791,0.875,3.671,1.456,5.567,1.87  c3.797,0.827,7.668,1.116,11.533,1.09c3.861,0.101,7.725-0.316,11.508-1.229c0.153-0.037,0.304-0.083,0.457-0.122  c0,0,0.451-0.16,1.229-0.344c1.312-0.399,2.607-0.891,3.858-1.52c1.793-0.871,3.5-2.059,4.946-3.683  c-1.318,1.795-3.021,3.105-4.786,4.145C41.216,43.645,39.989,44.18,38.744,44.634z M74.938,28.254  c11.531,0,20.878,3.461,20.878,7.73s-9.347,7.729-20.878,7.729c-11.53,0-20.879-3.459-20.879-7.729S63.408,28.254,74.938,28.254z   M92.41,42.977c-1.01,0.571-2.052,1.042-3.108,1.453c0.282,0.142,0.473,0.348,0.451,0.56l-0.562,6.095  c0.596,0.331,0.97,0.745,0.907,1.082c0,0.001-0.001,0.002-0.001,0.002c0.52,1.356,0.101,2.693,0.101,2.693s-2.192,2.575-2.258,5.254  l-0.729,0.804l-1.124-0.44l0.047-0.036l-0.041,0.023c-0.768-3.538-0.337-8.339-0.337-8.339l0.361-0.921  c-0.02-0.069-0.024-0.136-0.013-0.2c0.062-0.327,0.52-0.493,1.144-0.474l0.511-5.552c-0.306,0.1-0.609,0.202-0.916,0.292  c-3.817,1.087-7.742,1.502-11.644,1.482c-3.897-0.059-7.817-0.336-11.653-1.343c-0.182-0.05-0.365-0.108-0.548-0.161l0.309,5.44  c0.622,0.016,1.074,0.205,1.122,0.537c0.009,0.063,0.002,0.13-0.019,0.196l0.329,0.94c0,0,0.26,4.821-0.629,8.312l-0.032-0.02  l0.037,0.031l-1.139,0.378l-0.702-0.84c0.029-2.677-2.071-5.375-2.071-5.375s-0.372-1.354,0.197-2.683c0,0-0.001-0.001-0.001-0.002  c-0.051-0.341,0.337-0.732,0.942-1.032l-0.346-6.119c-0.008-0.127,0.071-0.246,0.184-0.35c-1.101-0.395-2.185-0.856-3.234-1.434  c-0.892-0.508-1.758-1.095-2.557-1.802c-0.791-0.709-1.562-1.526-2.033-2.598c1.164,1.96,2.98,3.062,4.745,3.938  c1.791,0.875,3.671,1.456,5.566,1.87c3.799,0.827,7.669,1.116,11.532,1.09c3.862,0.101,7.727-0.316,11.509-1.229  c1.892-0.461,3.76-1.088,5.545-1.985c1.793-0.871,3.5-2.059,4.946-3.683C95.881,40.627,94.178,41.937,92.41,42.977z"/>
</svg>