<?xml version="1.0" encoding="utf-8"?>
<!-- Generator: Adobe Illustrator 16.0.0, SVG Export Plug-In . SVG Version: 6.00 Build 0)  -->
<!DOCTYPE svg PUBLIC "-//W3C//DTD SVG 1.1//EN" "http://www.w3.org/Graphics/SVG/1.1/DTD/svg11.dtd">
<svg version="1.1" id="Layer_1" xmlns="http://www.w3.org/2000/svg" xmlns:xlink="http://www.w3.org/1999/xlink" x="0px" y="0px"
	 width="100px" height="100px" viewBox="0 0 100 100" enable-background="new 0 0 100 100" xml:space="preserve">
<g id="Your_Icon">
	<path d="M81.973,35.707c-0.795-4.119-2.401-7.95-4.651-11.319c0.632-0.982,0.972-2.122,0.972-3.317c0-1.646-0.64-3.193-1.805-4.357
		c-1.163-1.163-2.71-1.804-4.355-1.804c-1.18,0-2.304,0.333-3.277,0.948c-3.364-2.282-7.197-3.92-11.322-4.743
		c-0.613-2.752-3.073-4.817-6.008-4.817c-2.924,0-5.375,2.05-6.001,4.787c-4.179,0.809-8.064,2.451-11.468,4.755
		c-0.966-0.601-2.08-0.93-3.247-0.93c-1.646,0-3.192,0.641-4.355,1.805c-1.163,1.163-1.805,2.71-1.805,4.356
		c0,1.176,0.333,2.3,0.945,3.272c-2.269,3.384-3.885,7.237-4.683,11.378c-2.754,0.613-4.822,3.073-4.822,6.01
		c0,2.951,2.086,5.421,4.862,6.02c0.954,4.794,3.029,9.278,6.147,13.197h0.004c0.09,0.113,0.191,0.22,0.31,0.313
		c0.36,0.287,0.791,0.426,1.219,0.426c0.576,0,1.147-0.254,1.534-0.739c1.011-1.272,2.123-2.435,3.313-3.488
		c1.047,0.821,2.361,1.313,3.791,1.313c3.396,0,6.159-2.762,6.159-6.16c0-0.244-0.019-0.485-0.046-0.723
		c2.576-0.798,5.284-1.223,8.061-1.223c2.869,0,5.666,0.454,8.32,1.305c-0.023,0.211-0.035,0.426-0.035,0.641
		c0,3.398,2.764,6.16,6.16,6.16c1.366,0,2.624-0.449,3.646-1.206c1.144,1.024,2.209,2.153,3.186,3.38
		c0.674,0.848,1.906,0.987,2.752,0.314c0.119-0.094,0.219-0.201,0.31-0.314h0.005c3.113-3.916,5.188-8.395,6.145-13.183
		c2.805-0.574,4.92-3.061,4.92-6.033C86.852,38.774,84.756,36.298,81.973,35.707z M82.258,45.815
		c0.179-1.383,0.283-2.785,0.283-4.206c0-1.349-0.094-2.675-0.262-3.978c-0.028-0.143,0.082-0.104,0.132-0.083
		c1.646,0.677,2.81,2.295,2.81,4.183c0,1.89-1.169,3.509-2.818,4.187C82.347,45.941,82.24,45.947,82.258,45.815z M78.623,41.609
		c0,1.279-0.086,2.542-0.258,3.786c-0.009,0.066-0.062,0.175-0.2,0.085c-1.205-0.814-2.001-2.188-2.001-3.75
		c0-1.585,0.821-2.979,2.055-3.786c0.047-0.03,0.145-0.089,0.158,0.043C78.534,39.174,78.623,40.381,78.623,41.609z M75.335,17.867
		c0.854,0.856,1.327,1.994,1.327,3.203c0,0.575-0.11,1.133-0.316,1.653c-0.023,0.061-0.084,0.155-0.176,0.051
		c-1.643-2.151-3.562-4.08-5.701-5.74c-0.135-0.093-0.035-0.162,0.022-0.186c0.517-0.201,1.071-0.309,1.642-0.308
		C73.343,16.542,74.48,17.012,75.335,17.867z M67.932,20.016c1.968,1.506,3.723,3.276,5.217,5.255
		c0.044,0.058,0.053,0.178-0.093,0.229c-0.301,0.062-0.608,0.097-0.923,0.097c-1.209,0-2.346-0.471-3.2-1.327
		c-0.855-0.855-1.327-1.992-1.327-3.2c0-0.348,0.042-0.688,0.119-1.018C67.762,19.93,67.877,19.975,67.932,20.016z M51.525,7.929
		c1.83,0,3.406,1.093,4.119,2.657c0.035,0.076-0.061,0.208-0.139,0.197c-1.33-0.175-2.685-0.272-4.062-0.272
		c-1.33,0-2.638,0.092-3.924,0.255c-0.203,0.031-0.149-0.1-0.121-0.162C48.106,9.03,49.689,7.929,51.525,7.929z M55.337,14.891
		c-0.807,1.258-2.212,2.094-3.812,2.094c-1.615,0-3.033-0.853-3.834-2.128c-0.031-0.049-0.027-0.161,0.123-0.179
		c1.188-0.161,2.399-0.248,3.63-0.248c1.3,0,2.577,0.094,3.83,0.273C55.447,14.706,55.372,14.836,55.337,14.891z M26.281,21.07
		c0-1.21,0.471-2.346,1.327-3.202c0.855-0.855,1.991-1.327,3.201-1.327c0.545,0,1.076,0.097,1.573,0.281
		c0.068,0.025,0.15,0.087,0.041,0.205c-2.106,1.635-4,3.532-5.626,5.645c-0.101,0.104-0.204,0.048-0.231-0.023
		C26.381,22.151,26.281,21.619,26.281,21.07z M35.338,21.07c0,1.209-0.472,2.347-1.326,3.201c-0.854,0.855-1.992,1.326-3.202,1.326
		c-0.34,0-0.675-0.04-0.999-0.113c-0.145-0.035-0.102-0.176-0.053-0.239c1.504-1.988,3.273-3.765,5.257-5.275
		c0.16-0.122,0.192,0.021,0.207,0.091C35.298,20.388,35.338,20.725,35.338,21.07z M17.722,41.732c0-1.834,1.097-3.413,2.669-4.123
		c0.134-0.069,0.215-0.018,0.208,0.105c-0.162,1.277-0.253,2.577-0.253,3.896c0,1.375,0.092,2.734,0.267,4.073
		c-0.008,0.244-0.22,0.174-0.344,0.113C18.765,45.061,17.722,43.516,17.722,41.732z M24.264,41.609c0-1.231,0.088-2.443,0.249-3.631
		c0.021-0.133,0.124-0.088,0.175-0.056c1.255,0.805,2.09,2.21,2.09,3.81c0,1.551-0.787,2.919-1.98,3.734
		c-0.079,0.055-0.233,0.093-0.283-0.132C24.348,44.111,24.264,42.867,24.264,41.609z M41.796,52.691
		c-0.042,2.462-2.056,4.452-4.527,4.452c-0.854,0-1.653-0.239-2.336-0.653c-0.054-0.032-0.155-0.115-0.014-0.215
		c2.05-1.575,4.304-2.841,6.698-3.768C41.787,52.426,41.796,52.666,41.796,52.691z M32.741,52.614c0-2.497,2.032-4.527,4.528-4.527
		c0.903,0,1.744,0.268,2.451,0.727c0.071,0.046,0.168,0.153,0.02,0.219c-0.15,0.059-0.298,0.119-0.446,0.181
		c-0.304,0.13-0.605,0.268-0.905,0.407c-0.202,0.093-0.404,0.183-0.604,0.281c-0.321,0.158-0.637,0.325-0.953,0.494
		c-0.172,0.091-0.347,0.178-0.516,0.273c-0.415,0.23-0.822,0.474-1.226,0.726c-0.066,0.041-0.135,0.076-0.2,0.119
		c-0.467,0.295-0.928,0.604-1.378,0.924c-0.143,0.102-0.28,0.209-0.42,0.312c-0.042,0.031-0.083,0.061-0.124,0.092
		C32.798,52.955,32.741,52.743,32.741,52.614z M65.891,57.144c-2.457,0-4.464-1.97-4.526-4.411c0-0.112,0.118-0.143,0.177-0.118
		c2.324,0.93,4.514,2.175,6.508,3.72c0.062,0.049,0.141,0.172-0.016,0.264C67.395,56.943,66.666,57.144,65.891,57.144z
		 M70.169,53.023c-0.141-0.105-0.284-0.209-0.426-0.315c-0.122-0.087-0.237-0.18-0.359-0.266c-0.456-0.325-0.919-0.635-1.392-0.933
		c-0.034-0.021-0.071-0.041-0.106-0.064c-0.433-0.271-0.873-0.531-1.319-0.78c-0.158-0.088-0.32-0.169-0.479-0.255
		c-0.327-0.175-0.655-0.349-0.989-0.511c-0.193-0.095-0.389-0.182-0.583-0.271c-0.307-0.141-0.614-0.284-0.926-0.416
		c-0.088-0.038-0.177-0.074-0.267-0.11c-0.141-0.053-0.049-0.173,0.019-0.22c0.727-0.5,1.604-0.794,2.55-0.794
		c2.496,0,4.527,2.03,4.527,4.527c0,0.118-0.005,0.234-0.016,0.352C70.385,53.119,70.239,53.076,70.169,53.023z M73.715,56.165
		c-0.159-0.164-0.318-0.328-0.48-0.487c-0.244-0.242-0.495-0.477-0.747-0.709c-0.161-0.149-0.321-0.3-0.485-0.445
		c-0.068-0.061-0.133-0.123-0.201-0.183c0.162-0.548,0.252-1.127,0.252-1.727c0-3.396-2.764-6.16-6.161-6.16
		c-1.761,0-3.349,0.748-4.472,1.937c-0.014-0.005-0.028-0.01-0.043-0.015c-0.304-0.102-0.607-0.2-0.914-0.292
		c-0.229-0.07-0.457-0.136-0.688-0.199c-0.309-0.086-0.619-0.166-0.932-0.241c-0.229-0.056-0.461-0.112-0.693-0.164
		c-0.318-0.07-0.639-0.131-0.96-0.191c-0.229-0.044-0.456-0.087-0.687-0.126c-0.336-0.055-0.674-0.1-1.013-0.142
		c-0.219-0.029-0.437-0.062-0.657-0.085c-0.375-0.041-0.752-0.069-1.129-0.096c-0.187-0.014-0.371-0.033-0.558-0.043
		c-0.564-0.031-1.133-0.047-1.703-0.047c-0.571,0-1.138,0.016-1.704,0.047c-0.187,0.01-0.371,0.029-0.556,0.043
		c-0.378,0.026-0.756,0.055-1.13,0.096c-0.221,0.023-0.439,0.057-0.658,0.085c-0.338,0.044-0.676,0.087-1.01,0.142
		c-0.231,0.039-0.461,0.083-0.691,0.126c-0.32,0.06-0.638,0.121-0.955,0.191c-0.233,0.05-0.466,0.107-0.7,0.165
		c-0.309,0.076-0.617,0.153-0.923,0.238c-0.232,0.064-0.463,0.131-0.695,0.201c-0.25,0.075-0.499,0.152-0.747,0.234
		c-1.119-1.149-2.68-1.866-4.407-1.866c-3.397,0-6.161,2.765-6.161,6.16c0,0.533,0.076,1.049,0.203,1.543
		c-0.14,0.117-0.278,0.236-0.416,0.358c-0.176,0.155-0.349,0.317-0.522,0.478c-0.237,0.221-0.476,0.443-0.707,0.672
		c-0.175,0.17-0.346,0.348-0.517,0.523c-0.189,0.186-0.424,0.297-0.656-0.016c-1.747-2.735-2.963-5.726-3.63-8.871
		c2.092-0.985,3.547-3.108,3.547-5.57c0-2.481-1.477-4.618-3.594-5.594c0.691-3.37,2.014-6.51,3.83-9.304
		c0.683,0.256,1.411,0.396,2.162,0.396c1.646,0,3.193-0.64,4.357-1.804c1.163-1.163,1.805-2.711,1.805-4.356
		c0-0.761-0.142-1.499-0.405-2.189c2.802-1.842,5.961-3.182,9.354-3.886c0.969,2.133,3.115,3.623,5.606,3.623
		c2.479,0,4.613-1.474,5.59-3.587c3.354,0.715,6.479,2.051,9.253,3.88c-0.255,0.682-0.396,1.409-0.396,2.16
		c0,1.645,0.642,3.192,1.806,4.355c1.163,1.164,2.71,1.806,4.356,1.806c0.733,0,1.445-0.135,2.115-0.379
		c1.814,2.794,3.136,5.938,3.824,9.312c-2.09,0.986-3.543,3.107-3.543,5.569c0,2.442,1.433,4.551,3.498,5.545
		c-0.67,3.174-1.9,6.191-3.67,8.947C74.221,56.404,74.047,56.527,73.715,56.165z"/>
</g>
</svg>
