<svg xmlns="http://www.w3.org/2000/svg" xmlns:xlink="http://www.w3.org/1999/xlink" version="1.1" id="Layer_1" x="0px" y="0px" viewBox="5.0 -10.0 100.0 135.0" enable-background="new 0 0 100 100" xml:space="preserve" height="100px" width="100px">
<path id="drums" fill="#000000" d="M86.2,25.7c-0.4-0.8-1.2-1.3-2-1.3c-0.2,0-4.9,0.1-10.1,3.9l-1.5-6l4.1-2c1.1-0.6,1.6-1.9,1-3.1  c-0.6-1.1-1.9-1.6-3.1-1l-11.4,5.7c-1.1,0.6-1.6,1.9-1,3.1c0.4,0.8,1.2,1.3,2,1.3c0.3,0,0.7-0.1,1-0.2l3.2-1.6l2.2,8.6  c0,0.1,0,0.1,0.1,0.2c0,0.1,0,0.1,0.1,0.2c0.1,0.1,0.1,0.2,0.2,0.3l0,0c0.1,0.1,0.2,0.2,0.3,0.3l0,0c0,0,0,0,0.1,0.1  s0.2,0.1,0.2,0.2l0.1,0.1c0.1,0,0.2,0.1,0.2,0.1s0.1,0,0.1,0.1c0.1,0,0.2,0.1,0.3,0.1h0.1c0.1,0,0.3,0,0.4,0c0.1,0,0.3,0,0.4,0h0.1  h0.1h0.1c0.1,0,0.2-0.1,0.2-0.1c0.1,0,0.1-0.1,0.2-0.1c0.1,0,0.1-0.1,0.2-0.1c0.1,0,0.1-0.1,0.2-0.2l0.1-0.1  c3.4-3.4,6.7-4.5,8.5-4.9l6.8,13.6l-12.5,6.2C74.4,36.7,63.3,27.4,50,27.4s-24.4,9.3-27.2,21.7l-12.5-6.2l6.8-13.6  c1.8,0.4,5.1,1.5,8.5,4.8l0.1,0.1c0.1,0.1,0.1,0.1,0.2,0.2c0.1,0,0.1,0.1,0.2,0.1s0.1,0.1,0.2,0.1s0.2,0.1,0.2,0.1h0.1h0.1h0.1  c0.1,0,0.3,0,0.4,0s0.3,0,0.4,0h0.1c0.1,0,0.2,0,0.3-0.1c0,0,0.1,0,0.1-0.1c0.1,0,0.2-0.1,0.2-0.1l0.1-0.1c0.1-0.1,0.2-0.1,0.2-0.2  c0,0,0,0,0.1-0.1l0,0c0.1-0.1,0.2-0.2,0.3-0.3l0,0c0.1-0.1,0.1-0.2,0.2-0.3c0-0.1,0-0.1,0.1-0.2c0-0.1,0-0.1,0.1-0.2l2.2-8.6  l3.2,1.6c0.3,0.2,0.7,0.2,1,0.2c0.8,0,1.6-0.5,2-1.3c0.6-1.1,0.1-2.5-1-3.1l-11.4-5.7c-1.1-0.6-2.5-0.1-3.1,1s-0.1,2.5,1,3.1l4.1,2  l-1.5,6c-5.2-3.8-9.8-3.8-10.1-3.8c-0.9,0-1.7,0.5-2,1.3L5.3,42.8c-0.6,1.1-0.1,2.5,1,3.1l7.3,3.6l0,0v26.2h-3.4  c-1.3,0-2.3,1-2.3,2.3s1,2.3,2.3,2.3h11.4c1.3,0,2.3-1,2.3-2.3s-1-2.3-2.3-2.3h-3.4V51.8l4,2c0,0.5,0,0.9,0,1.4  c0,9.2,4.5,17.3,11.3,22.4l-1.7,3.3c-0.6,1.1-0.1,2.5,1,3.1c0.3,0.2,0.7,0.2,1,0.2c0.8,0,1.6-0.5,2-1.3l1.5-3  c3.8,2,8.1,3.1,12.7,3.1s8.9-1.1,12.7-3.1l1.5,3c0.4,0.8,1.2,1.3,2,1.3c0.3,0,0.7-0.1,1-0.2c1.1-0.6,1.6-1.9,1-3.1l-1.7-3.3  c6.9-5.1,11.3-13.2,11.3-22.4c0-0.5,0-1,0-1.4l4-2v23.9h-3.4c-1.3,0-2.3,1-2.3,2.3s1,2.3,2.3,2.3h11.4c1.3,0,2.3-1,2.3-2.3  s-1-2.3-2.3-2.3h-3.4V49.5l0,0l7.3-3.6c1.1-0.6,1.6-1.9,1-3.1L86.2,25.7z M50,78.6c-12.9,0-23.4-10.5-23.4-23.4S37.1,31.9,50,31.9  s23.4,10.5,23.4,23.4S62.9,78.6,50,78.6z"/>
</svg>